<svg width="30" height="30" viewBox="0 0 30 30" fill="none" xmlns="http://www.w3.org/2000/svg">
<g clip-path="url(#clip0_136_1234)">
<path d="M15.0001 21.25C14.8343 21.25 14.6754 21.3158 14.5582 21.433C14.4409 21.5503 14.3751 21.7092 14.3751 21.875V24.375C14.3751 24.5407 14.4409 24.6997 14.5582 24.8169C14.6754 24.9341 14.8343 25 15.0001 25C15.1659 25 15.3248 24.9341 15.442 24.8169C15.5593 24.6997 15.6251 24.5407 15.6251 24.375V21.875C15.6251 21.7092 15.5593 21.5503 15.442 21.433C15.3248 21.3158 15.1659 21.25 15.0001 21.25ZM10.3251 21.25C10.2438 21.2356 10.1605 21.2376 10.0799 21.2556C9.99937 21.2737 9.92319 21.3075 9.85578 21.3551C9.78838 21.4028 9.73107 21.4633 9.68719 21.5332C9.6433 21.6031 9.61371 21.6811 9.6001 21.7625L9.1626 24.2625C9.14826 24.3438 9.15018 24.4271 9.16822 24.5077C9.18627 24.5882 9.22009 24.6644 9.26774 24.7318C9.31539 24.7992 9.37593 24.8565 9.44584 24.9004C9.51576 24.9443 9.59368 24.9739 9.6751 24.9875H9.7876C9.93345 24.987 10.0745 24.9354 10.1864 24.8418C10.2982 24.7482 10.3738 24.6185 10.4001 24.475L10.8376 21.975C10.8519 21.8937 10.85 21.8104 10.832 21.7298C10.8139 21.6493 10.7801 21.5731 10.7325 21.5057C10.6848 21.4383 10.6243 21.381 10.5544 21.3371C10.4844 21.2932 10.4065 21.2636 10.3251 21.25ZM5.6376 21.3375C5.48178 21.2812 5.30999 21.2891 5.15998 21.3594C5.00997 21.4297 4.89402 21.5567 4.8376 21.7125L3.9876 24.0625C3.95697 24.1402 3.94223 24.2233 3.94428 24.3069C3.94632 24.3904 3.96509 24.4727 3.99948 24.5489C4.03388 24.625 4.08319 24.6935 4.14452 24.7503C4.20584 24.807 4.27792 24.8509 4.3565 24.8793C4.43509 24.9078 4.51857 24.9201 4.60202 24.9157C4.68547 24.9113 4.76718 24.8902 4.84234 24.8537C4.91749 24.8172 4.98456 24.7659 5.03957 24.703C5.09458 24.6401 5.13641 24.5668 5.1626 24.4875L6.0126 22.1375C6.06135 21.9849 6.04961 21.8193 5.97983 21.6751C5.91004 21.5309 5.78753 21.419 5.6376 21.3625V21.3375ZM16.8751 9.99999H13.1251C12.9593 9.99999 12.8004 10.0658 12.6832 10.183C12.5659 10.3003 12.5001 10.4592 12.5001 10.625C12.5001 10.7907 12.5659 10.9497 12.6832 11.0669C12.8004 11.1841 12.9593 11.25 13.1251 11.25H16.8751C17.0409 11.25 17.1998 11.1841 17.317 11.0669C17.4343 10.9497 17.5001 10.7907 17.5001 10.625C17.5001 10.4592 17.4343 10.3003 17.317 10.183C17.1998 10.0658 17.0409 9.99999 16.8751 9.99999ZM29.2001 6.04999C28.9001 5.71809 28.5336 5.45307 28.1244 5.27217C27.7152 5.09127 27.2725 4.99853 26.8251 4.99999H3.1751C2.72981 5.00028 2.28953 5.09386 1.88262 5.27471C1.47571 5.45556 1.11121 5.71966 0.812602 6.04999C0.517428 6.36879 0.292563 6.74608 0.152591 7.15738C0.0126185 7.56868 -0.0393343 8.00481 0.000101857 8.43749L0.762602 15.9375C0.84658 16.7175 1.21857 17.438 1.80579 17.9582C2.39301 18.4784 3.1532 18.7607 3.9376 18.75H4.7126H4.9001H5.0751H26.0626C26.8427 18.7545 27.5968 18.4693 28.1787 17.9497C28.7606 17.4302 29.129 16.7131 29.2126 15.9375L29.9751 8.43749C30.0195 8.00749 29.9735 7.57295 29.8401 7.16179C29.7066 6.75062 29.4886 6.37191 29.2001 6.04999ZM5.4876 17.5C5.53336 17.1521 5.70478 16.8329 5.96957 16.6027C6.23436 16.3724 6.57422 16.247 6.9251 16.25H23.0751C23.4246 16.2473 23.7628 16.3732 24.0256 16.6037C24.2883 16.8342 24.4572 17.1531 24.5001 17.5H5.4876ZM27.9876 15.8125C27.9347 16.2831 27.708 16.7169 27.352 17.0291C26.9959 17.3412 26.5361 17.5092 26.0626 17.5H25.7751C25.7276 16.8202 25.4236 16.1839 24.9246 15.7197C24.4257 15.2556 23.769 14.9983 23.0876 15H6.9251C6.52367 14.9981 6.12687 15.0858 5.7636 15.2566C5.40032 15.4274 5.07971 15.6771 4.8251 15.9875C4.47594 16.4178 4.27047 16.9468 4.2376 17.5H3.9376C3.46629 17.506 3.00955 17.3367 2.65612 17.0248C2.30268 16.713 2.07778 16.2809 2.0251 15.8125L1.8126 13.75H28.1876L27.9876 15.8125ZM28.3126 12.5H1.6876L1.2501 8.31249C1.22363 8.05486 1.2523 7.79455 1.3342 7.54885C1.4161 7.30316 1.54935 7.07771 1.7251 6.88749C1.90825 6.68508 2.1321 6.52365 2.38198 6.41379C2.63186 6.30393 2.90214 6.24811 3.1751 6.24999H26.8251C27.096 6.24986 27.3638 6.30654 27.6114 6.41634C27.859 6.52615 28.0809 6.68665 28.2626 6.88749C28.4406 7.07664 28.5761 7.30161 28.6602 7.54735C28.7443 7.7931 28.7749 8.05395 28.7501 8.31249L28.3126 12.5ZM19.6751 21.25C19.5937 21.2636 19.5158 21.2932 19.4458 21.3371C19.3759 21.381 19.3154 21.4383 19.2677 21.5057C19.2201 21.5731 19.1863 21.6493 19.1682 21.7298C19.1502 21.8104 19.1483 21.8937 19.1626 21.975L19.6001 24.475C19.6264 24.6185 19.702 24.7482 19.8138 24.8418C19.9257 24.9354 20.0668 24.987 20.2126 24.9875H20.3251C20.4065 24.9739 20.4844 24.9443 20.5544 24.9004C20.6243 24.8565 20.6848 24.7992 20.7325 24.7318C20.7801 24.6644 20.8139 24.5882 20.832 24.5077C20.85 24.4271 20.8519 24.3438 20.8376 24.2625L20.4001 21.7625C20.3865 21.6811 20.3569 21.6031 20.313 21.5332C20.2691 21.4633 20.2118 21.4028 20.1444 21.3551C20.077 21.3075 20.0008 21.2737 19.9203 21.2556C19.8397 21.2376 19.7564 21.2356 19.6751 21.25ZM25.1626 21.7125C25.1364 21.6331 25.0946 21.5598 25.0396 21.4969C24.9846 21.434 24.9175 21.3828 24.8423 21.3463C24.7672 21.3097 24.6855 21.2886 24.602 21.2842C24.5186 21.2798 24.4351 21.2922 24.3565 21.3206C24.2779 21.3491 24.2058 21.3929 24.1445 21.4497C24.0832 21.5065 24.0339 21.575 23.9995 21.6511C23.9651 21.7273 23.9463 21.8096 23.9443 21.8931C23.9422 21.9766 23.957 22.0597 23.9876 22.1375L24.8376 24.4875C24.8972 24.6389 25.0136 24.761 25.1618 24.828C25.3101 24.8949 25.4787 24.9014 25.6317 24.8461C25.7847 24.7908 25.9101 24.6779 25.9812 24.5316C26.0523 24.3853 26.0636 24.217 26.0126 24.0625L25.1626 21.7125Z" fill="#FF7B00"/>
</g>
<defs>
<clipPath id="clip0_136_1234">
<rect width="30" height="30" fill="white"/>
</clipPath>
</defs>
</svg>
