<svg width="27" height="17" viewBox="0 0 27 17" fill="none" xmlns="http://www.w3.org/2000/svg">
<path d="M19.6356 11.3519V5.64525C19.6356 4.86509 19.0359 4.21598 18.2582 4.15433C14.0504 3.82077 9.82275 3.82077 5.61495 4.15433L5.37117 4.17365C4.8042 4.2186 4.33262 4.62764 4.20802 5.18258C3.71916 7.35972 3.71934 9.61882 4.20817 11.7959C4.3324 12.3491 4.80168 12.7579 5.36717 12.8046L5.59227 12.8231C9.81461 13.1718 14.0585 13.1718 18.2808 12.8231C19.0464 12.7599 19.6356 12.1201 19.6356 11.3519Z" fill="#34C759"/>
<path d="M19.6356 11.3519V5.64525C19.6356 4.86509 19.0359 4.21598 18.2582 4.15433C14.0504 3.82077 9.82275 3.82077 5.61495 4.15433L5.37117 4.17365C4.8042 4.2186 4.33262 4.62764 4.20802 5.18258C3.71916 7.35972 3.71934 9.61882 4.20817 11.7959C4.3324 12.3491 4.80168 12.7579 5.36717 12.8046L5.59227 12.8231C9.81461 13.1718 14.0585 13.1718 18.2808 12.8231C19.0464 12.7599 19.6356 12.1201 19.6356 11.3519Z" fill="black" fill-opacity="0.2"/>
<path fill-rule="evenodd" clip-rule="evenodd" d="M26.7397 11.0833V5.91666C26.7397 4.66827 25.7277 3.65624 24.4793 3.65624H23.6397V3.57832C23.6397 1.93656 22.3766 0.571143 20.7398 0.443518L19.1014 0.315761C14.5131 -0.0420008 9.90389 -0.042001 5.3156 0.315761L3.57495 0.451484C2.01249 0.573313 0.733883 1.74374 0.474763 3.28937C-0.103567 6.73905 -0.103567 10.2609 0.474762 13.7106C0.733882 15.2562 2.01249 16.4267 3.57495 16.5485L5.3156 16.6842C9.9039 17.042 14.5131 17.042 19.1014 16.6842L20.7398 16.5565C22.3766 16.4288 23.6397 15.0634 23.6397 13.4217V13.3437H24.4793C25.7277 13.3437 26.7397 12.3317 26.7397 11.0833ZM24.8022 5.91666V11.0833C24.8022 11.2617 24.6577 11.4062 24.4793 11.4062L22.671 11.4062C22.136 11.4062 21.7022 11.84 21.7022 12.375V13.4217C21.7022 14.0518 21.2174 14.5758 20.5892 14.6248L18.9508 14.7526C14.4627 15.1025 9.95425 15.1025 5.46621 14.7526L3.72556 14.6169C3.05023 14.5642 2.49759 14.0583 2.3856 13.3903C1.84282 10.1527 1.84282 6.84731 2.3856 3.60972C2.49759 2.94166 3.05023 2.43578 3.72556 2.38312L5.46621 2.2474C9.95425 1.89745 14.4627 1.89745 18.9508 2.2474L20.5892 2.37515C21.2174 2.42414 21.7022 2.9482 21.7022 3.57832V4.62499C21.7022 5.16002 22.136 5.59374 22.671 5.59374H24.4793C24.6577 5.59374 24.8022 5.73832 24.8022 5.91666Z" fill="#34C759"/>
<path fill-rule="evenodd" clip-rule="evenodd" d="M26.7397 11.0833V5.91666C26.7397 4.66827 25.7277 3.65624 24.4793 3.65624H23.6397V3.57832C23.6397 1.93656 22.3766 0.571143 20.7398 0.443518L19.1014 0.315761C14.5131 -0.0420008 9.90389 -0.042001 5.3156 0.315761L3.57495 0.451484C2.01249 0.573313 0.733883 1.74374 0.474763 3.28937C-0.103567 6.73905 -0.103567 10.2609 0.474762 13.7106C0.733882 15.2562 2.01249 16.4267 3.57495 16.5485L5.3156 16.6842C9.9039 17.042 14.5131 17.042 19.1014 16.6842L20.7398 16.5565C22.3766 16.4288 23.6397 15.0634 23.6397 13.4217V13.3437H24.4793C25.7277 13.3437 26.7397 12.3317 26.7397 11.0833ZM24.8022 5.91666V11.0833C24.8022 11.2617 24.6577 11.4062 24.4793 11.4062L22.671 11.4062C22.136 11.4062 21.7022 11.84 21.7022 12.375V13.4217C21.7022 14.0518 21.2174 14.5758 20.5892 14.6248L18.9508 14.7526C14.4627 15.1025 9.95425 15.1025 5.46621 14.7526L3.72556 14.6169C3.05023 14.5642 2.49759 14.0583 2.3856 13.3903C1.84282 10.1527 1.84282 6.84731 2.3856 3.60972C2.49759 2.94166 3.05023 2.43578 3.72556 2.38312L5.46621 2.2474C9.95425 1.89745 14.4627 1.89745 18.9508 2.2474L20.5892 2.37515C21.2174 2.42414 21.7022 2.9482 21.7022 3.57832V4.62499C21.7022 5.16002 22.136 5.59374 22.671 5.59374H24.4793C24.6577 5.59374 24.8022 5.73832 24.8022 5.91666Z" fill="black" fill-opacity="0.2"/>
</svg>
