<svg width="24" height="26" viewBox="0 0 24 26" fill="none" xmlns="http://www.w3.org/2000/svg">
<mask id="mask0_603_381" style="mask-type:luminance" maskUnits="userSpaceOnUse" x="0" y="0" width="24" height="16">
<path d="M0.463867 0H24.0001V15.0278H0.463867V0Z" fill="white"/>
</mask>
<g mask="url(#mask0_603_381)">
<path d="M21.5155 14.8658H23.9915C23.9927 14.813 24 14.7625 24 14.712V11.8534C24 8.56205 21.181 5.8847 17.7182 5.8847H12.6165V3.3267C13.3328 3.10177 13.8545 2.4683 13.8545 1.71088C13.8545 0.767555 13.0489 0.00210571 12.0561 0.00210571C11.0633 0.00210571 10.2565 0.767555 10.2565 1.71088C10.2565 2.4683 10.7783 3.10292 11.4957 3.3267V5.88585H6.39641C3.77792 5.88585 1.53143 7.41789 0.589355 9.58456H3.43974C4.13664 8.76517 5.20311 8.23843 6.39641 8.23843H17.7194C19.8174 8.23843 21.524 9.85998 21.524 11.8534V14.712C21.524 14.7637 21.5179 14.8153 21.5155 14.8658ZM11.9027 0.97527C11.9027 1.24151 11.6745 1.45841 11.3942 1.45841C11.1128 1.45841 10.8858 1.24151 10.8858 0.97527C10.8858 0.707879 11.1128 0.490983 11.3942 0.490983C11.6745 0.490983 11.9027 0.709027 11.9027 0.97527Z" fill="#8B8B8B"/>
<path d="M18.054 13.0184C18.054 13.8378 17.3559 14.5034 16.4911 14.5034C15.6275 14.5034 14.9282 13.8401 14.9282 13.0184C14.9282 12.1979 15.6275 11.5334 16.4911 11.5334C17.3559 11.5334 18.054 12.1979 18.054 13.0184Z" fill="#8B8B8B"/>
<path d="M8.08729 11.5334C8.94966 11.5334 9.65138 12.1979 9.65138 13.0184C9.65138 13.8378 8.95207 14.5034 8.08729 14.5034C7.22372 14.5034 6.52441 13.8378 6.52441 13.0184C6.52441 12.1979 7.22372 11.5334 8.08729 11.5334Z" fill="#8B8B8B"/>
</g>
<mask id="mask1_603_381" style="mask-type:luminance" maskUnits="userSpaceOnUse" x="0" y="11" width="24" height="10">
<path d="M0 11.5023H23.5386V20.9035H0V11.5023Z" fill="white"/>
</mask>
<g mask="url(#mask1_603_381)">
<path d="M0.00966232 11.6997H2.48684C2.48442 11.7525 2.47839 11.803 2.47839 11.8535V14.7122C2.47839 16.7056 4.18499 18.3271 6.28292 18.3271H17.606C18.7993 18.3271 19.8657 17.8004 20.5626 16.981H23.413C22.4721 19.15 20.2244 20.6797 17.606 20.6797H6.28172C2.81777 20.6797 0 18.0024 0 14.711V11.8535C0 11.8019 0.00724659 11.7514 0.00966232 11.6997Z" fill="#8B8B8B"/>
</g>
<mask id="mask2_603_381" style="mask-type:luminance" maskUnits="userSpaceOnUse" x="12" y="20" width="5" height="6">
<path d="M12.2134 20.9035H16.5421V26H12.2134V20.9035Z" fill="white"/>
</mask>
<g mask="url(#mask2_603_381)">
<path d="M16.2967 21.5279V25.3241L15.5636 25.9335L12.4209 24.0411V22.8097L15.5636 20.9173L16.2967 21.5279Z" fill="#8B8B8B"/>
</g>
<mask id="mask3_603_381" style="mask-type:luminance" maskUnits="userSpaceOnUse" x="7" y="20" width="5" height="6">
<path d="M7.5752 20.9035H11.9039V26H7.5752V20.9035Z" fill="white"/>
</mask>
<g mask="url(#mask3_603_381)">
<path d="M11.6939 22.8097V24.0411L8.55246 25.9335L7.81934 25.3241V21.5279L8.55246 20.9173L11.6939 22.8097Z" fill="#8B8B8B"/>
</g>
<path d="M11.7988 22.8235H12.3158V24.0273H11.7988V22.8235Z" fill="#8B8B8B"/>
</svg>
