<svg width="24" height="24" viewBox="0 0 24 24" fill="none" xmlns="http://www.w3.org/2000/svg">
<path d="M14.8365 1.00763C13.285 -0.335875 10.7151 -0.335877 9.16356 1.00762L1.58537 7.56976C1.15014 7.94663 0.857676 8.42307 0.744825 8.93906C-0.175523 13.1472 -0.243459 17.4552 0.543872 21.6823L0.822622 23.1788C0.910666 23.6515 1.39624 24 1.96685 24H7.26216C7.69827 24 8.0518 23.7036 8.0518 23.3379V14.0689H15.9483V23.3379C15.9483 23.7036 16.3018 24 16.7379 24H22.0332C22.6038 24 23.0893 23.6515 23.1774 23.1788L23.4561 21.6823C24.2435 17.4552 24.1755 13.1472 23.2552 8.93906C23.1423 8.42307 22.8499 7.94663 22.4146 7.56976L14.8365 1.00763Z" fill="black"/>
</svg>
