<svg width="32" height="32" viewBox="0 0 32 32" fill="none" xmlns="http://www.w3.org/2000/svg">
<path d="M17.3337 12C17.3337 12.7364 16.7368 13.3333 16.0004 13.3333C15.264 13.3333 14.6671 12.7364 14.6671 12C14.6671 11.2636 15.264 10.6667 16.0004 10.6667C16.7368 10.6667 17.3337 11.2636 17.3337 12Z" fill="white"/>
<path d="M16.0004 15.6667C16.5527 15.6667 17.0004 16.1144 17.0004 16.6667V23.3333C17.0004 23.8856 16.5527 24.3333 16.0004 24.3333C15.4481 24.3333 15.0004 23.8856 15.0004 23.3333V16.6667C15.0004 16.1144 15.4481 15.6667 16.0004 15.6667Z" fill="white"/>
<path fill-rule="evenodd" clip-rule="evenodd" d="M19.0275 5.32351C17.5716 3.19329 14.4292 3.19329 12.9732 5.32351L12.3973 6.1661C8.78927 11.4451 5.68932 17.0539 3.13902 22.9175L3.01873 23.194C2.11999 25.2604 3.47781 27.6066 5.7172 27.8569C12.5514 28.6208 19.4494 28.6208 26.2836 27.8569C28.523 27.6066 29.8808 25.2604 28.982 23.194L28.8617 22.9174C26.3114 17.0539 23.2115 11.4451 19.6034 6.16611L19.0275 5.32351ZM14.6244 6.45206C15.2862 5.48378 16.7146 5.48377 17.3764 6.45206L17.9523 7.29466C21.489 12.4693 24.5278 17.9674 27.0277 23.7151L27.148 23.9917C27.5099 24.8238 26.9631 25.7685 26.0614 25.8693C19.3749 26.6166 12.6259 26.6166 5.93935 25.8693C5.03762 25.7685 4.49087 24.8238 4.85276 23.9917L4.97305 23.7151C7.47299 17.9674 10.5117 12.4693 14.0485 7.29465L14.6244 6.45206Z" fill="white"/>
</svg>
