<svg width="22" height="30" viewBox="0 0 22 30" fill="none" xmlns="http://www.w3.org/2000/svg">
<path d="M18.9529 16H2.39289C2.03634 16.0004 1.68422 15.9211 1.36232 15.7678C1.04042 15.6145 0.756899 15.3911 0.532534 15.114C0.30817 14.8369 0.148646 14.5131 0.0656512 14.1663C-0.017343 13.8196 -0.0217044 13.4587 0.0528868 13.11L2.25289 2.85C2.43007 2.04464 2.87619 1.3236 3.5178 0.80559C4.15941 0.287576 4.95827 0.00345638 5.78289 0H15.5629C16.3889 0.00395992 17.1888 0.289508 17.8306 0.80949C18.4724 1.32947 18.9177 2.05279 19.0929 2.86L21.2929 13.11C21.3675 13.4587 21.3631 13.8196 21.2801 14.1663C21.1971 14.5131 21.0376 14.8369 20.8132 15.114C20.5889 15.3911 20.3054 15.6145 19.9835 15.7678C19.6616 15.9211 19.3094 16.0004 18.9529 16ZM5.78289 2C5.41606 2.00266 5.061 2.12974 4.7758 2.36045C4.49059 2.59115 4.29213 2.91183 4.21289 3.27L2.01289 13.53C2.00102 13.5866 2.0019 13.6452 2.01546 13.7014C2.02903 13.7577 2.05494 13.8102 2.09132 13.8552C2.1277 13.9002 2.17363 13.9365 2.22579 13.9616C2.27795 13.9866 2.33503 13.9997 2.39289 14H18.9529C19.0107 13.9997 19.0678 13.9866 19.12 13.9616C19.1721 13.9365 19.2181 13.9002 19.2545 13.8552C19.2908 13.8102 19.3167 13.7577 19.3303 13.7014C19.3439 13.6452 19.3448 13.5866 19.3329 13.53L17.1329 3.27C17.0536 2.91183 16.8552 2.59115 16.57 2.36045C16.2848 2.12974 15.9297 2.00266 15.5629 2H5.78289Z" fill="#5654D4"/>
<path d="M11.6729 14.75H9.67285V29H11.6729V14.75Z" fill="#5654D4"/>
<path d="M14.6729 28H6.67285C6.12057 28 5.67285 28.4477 5.67285 29C5.67285 29.5523 6.12057 30 6.67285 30H14.6729C15.2251 30 15.6729 29.5523 15.6729 29C15.6729 28.4477 15.2251 28 14.6729 28Z" fill="#5654D4"/>
<path d="M6.67285 16C6.67285 15.4477 6.22514 15 5.67285 15C5.12057 15 4.67285 15.4477 4.67285 16V17C4.67285 17.5523 5.12057 18 5.67285 18C6.22514 18 6.67285 17.5523 6.67285 17V16Z" fill="#5654D4"/>
</svg>
