<svg width="32" height="23" viewBox="0 0 32 23" fill="none" xmlns="http://www.w3.org/2000/svg">
<path d="M28.5715 16.5157V0.575C28.5715 0.4225 28.5112 0.276247 28.4041 0.168414C28.2969 0.0605803 28.1516 0 28 0H3.99998C3.84843 0 3.70308 0.0605803 3.59592 0.168414C3.48875 0.276247 3.42855 0.4225 3.42855 0.575V16.5157L0.0814462 22.1291C0.0294159 22.2163 0.00132668 22.3159 4.58524e-05 22.4177C-0.00123497 22.5194 0.0243385 22.6197 0.0741557 22.7082C0.123973 22.7968 0.19625 22.8705 0.283608 22.9217C0.370966 22.973 0.470276 23 0.571401 23H31.4286C31.5297 23 31.629 22.973 31.7164 22.9217C31.8038 22.8705 31.876 22.7968 31.9258 22.7082C31.9757 22.6197 32.0012 22.5194 32 22.4177C31.9987 22.3159 31.9706 22.2163 31.9186 22.1291L28.5715 16.5157ZM4.57141 1.15H27.4286V16.1H4.57141V1.15ZM1.58061 21.85L4.32364 17.25H27.6764L30.4194 21.85H1.58061Z" fill="#B55B52"/>
<path d="M15.5605 0.181543C15.4474 0.299891 15.3832 0.456507 15.381 0.620021C15.3821 0.783764 15.4464 0.940783 15.5605 1.0585C15.6474 1.14521 15.7581 1.20426 15.8787 1.22818C15.9993 1.2521 16.1242 1.23982 16.2378 1.19289C16.3514 1.14596 16.4484 1.06648 16.5167 0.96452C16.585 0.862555 16.6215 0.742677 16.6215 0.620046C16.6215 0.497414 16.585 0.377537 16.5167 0.275572C16.4484 0.173607 16.3514 0.0941336 16.2378 0.0472025C16.1242 0.000271486 15.9993 -0.01201 15.8787 0.0119111C15.7581 0.0358322 15.6474 0.094832 15.5605 0.181543ZM8.88095 17.9121C8.88095 17.7483 8.81573 17.5912 8.69964 17.4754C8.58354 17.3596 8.42609 17.2945 8.2619 17.2945H6.40476C6.24058 17.2945 6.08312 17.3596 5.96703 17.4754C5.85094 17.5912 5.78571 17.7483 5.78571 17.9121C5.78571 18.0759 5.85094 18.233 5.96703 18.3488C6.08312 18.4646 6.24058 18.5297 6.40476 18.5297H8.2619C8.42609 18.5297 8.58354 18.4646 8.69964 18.3488C8.81573 18.233 8.88095 18.0759 8.88095 17.9121ZM13.2143 17.9121C13.2143 17.7483 13.1491 17.5912 13.033 17.4754C12.9169 17.3596 12.7594 17.2945 12.5952 17.2945H10.7381C10.5739 17.2945 10.4165 17.3596 10.3004 17.4754C10.1843 17.5912 10.119 17.7483 10.119 17.9121C10.119 18.0759 10.1843 18.233 10.3004 18.3488C10.4165 18.4646 10.5739 18.5297 10.7381 18.5297H12.5952C12.7594 18.5297 12.9169 18.4646 13.033 18.3488C13.1491 18.233 13.2143 18.0759 13.2143 17.9121ZM15.0714 18.5297H16.9286C17.0928 18.5297 17.2502 18.4646 17.3663 18.3488C17.4824 18.233 17.5476 18.0759 17.5476 17.9121C17.5476 17.7483 17.4824 17.5912 17.3663 17.4754C17.2502 17.3596 17.0928 17.2945 16.9286 17.2945H15.0714C14.9072 17.2945 14.7498 17.3596 14.6337 17.4754C14.5176 17.5912 14.4524 17.7483 14.4524 17.9121C14.4524 18.0759 14.5176 18.233 14.6337 18.3488C14.7498 18.4646 14.9072 18.5297 15.0714 18.5297ZM21.881 17.9121C21.881 17.7483 21.8157 17.5912 21.6996 17.4754C21.5835 17.3596 21.4261 17.2945 21.2619 17.2945H19.4048C19.2406 17.2945 19.0831 17.3596 18.967 17.4754C18.8509 17.5912 18.7857 17.7483 18.7857 17.9121C18.7857 18.0759 18.8509 18.233 18.967 18.3488C19.0831 18.4646 19.2406 18.5297 19.4048 18.5297H21.2619C21.4261 18.5297 21.5835 18.4646 21.6996 18.3488C21.8157 18.233 21.881 18.0759 21.881 17.9121ZM26.2143 17.9121C26.2143 17.7483 26.1491 17.5912 26.033 17.4754C25.9169 17.3596 25.7594 17.2945 25.5952 17.2945H23.7381C23.5739 17.2945 23.4165 17.3596 23.3004 17.4754C23.1843 17.5912 23.119 17.7483 23.119 17.9121C23.119 18.0759 23.1843 18.233 23.3004 18.3488C23.4165 18.4646 23.5739 18.5297 23.7381 18.5297H25.5952C25.7594 18.5297 25.9169 18.4646 26.033 18.3488C26.1491 18.233 26.2143 18.0759 26.2143 17.9121ZM5.47619 19.7648H3.61905C3.45487 19.7648 3.29741 19.8299 3.18131 19.9457C3.06522 20.0616 3 20.2186 3 20.3824C3 20.5462 3.06522 20.7033 3.18131 20.8191C3.29741 20.9349 3.45487 21 3.61905 21H5.47619C5.64037 21 5.79783 20.9349 5.91392 20.8191C6.03002 20.7033 6.09524 20.5462 6.09524 20.3824C6.09524 20.2186 6.03002 20.0616 5.91392 19.9457C5.79783 19.8299 5.64037 19.7648 5.47619 19.7648ZM9.80952 19.7648H7.95238C7.7882 19.7648 7.63074 19.8299 7.51465 19.9457C7.39855 20.0616 7.33333 20.2186 7.33333 20.3824C7.33333 20.5462 7.39855 20.7033 7.51465 20.8191C7.63074 20.9349 7.7882 21 7.95238 21H9.80952C9.97371 21 10.1312 20.9349 10.2473 20.8191C10.3634 20.7033 10.4286 20.5462 10.4286 20.3824C10.4286 20.2186 10.3634 20.0616 10.2473 19.9457C10.1312 19.8299 9.97371 19.7648 9.80952 19.7648ZM19.7143 19.7648H12.2857C12.1215 19.7648 11.9641 19.8299 11.848 19.9457C11.7319 20.0616 11.6667 20.2186 11.6667 20.3824C11.6667 20.5462 11.7319 20.7033 11.848 20.8191C11.9641 20.9349 12.1215 21 12.2857 21H19.7143C19.8785 21 20.0359 20.9349 20.152 20.8191C20.2681 20.7033 20.3333 20.5462 20.3333 20.3824C20.3333 20.2186 20.2681 20.0616 20.152 19.9457C20.0359 19.8299 19.8785 19.7648 19.7143 19.7648ZM24.0476 19.7648H22.1905C22.0263 19.7648 21.8688 19.8299 21.7527 19.9457C21.6367 20.0616 21.5714 20.2186 21.5714 20.3824C21.5714 20.5462 21.6367 20.7033 21.7527 20.8191C21.8688 20.9349 22.0263 21 22.1905 21H24.0476C24.2118 21 24.3693 20.9349 24.4854 20.8191C24.6014 20.7033 24.6667 20.5462 24.6667 20.3824C24.6667 20.2186 24.6014 20.0616 24.4854 19.9457C24.3693 19.8299 24.2118 19.7648 24.0476 19.7648ZM26.5238 19.7648C26.3596 19.7648 26.2022 19.8299 26.0861 19.9457C25.97 20.0616 25.9048 20.2186 25.9048 20.3824C25.9048 20.5462 25.97 20.7033 26.0861 20.8191C26.2022 20.9349 26.3596 21 26.5238 21H28.381C28.5451 21 28.7026 20.9349 28.8187 20.8191C28.9348 20.7033 29 20.5462 29 20.3824C29 20.2186 28.9348 20.0616 28.8187 19.9457C28.7026 19.8299 28.5451 19.7648 28.381 19.7648H26.5238Z" fill="#B55B52"/>
</svg>
