<svg width="25" height="24" viewBox="0 0 25 24" fill="none" xmlns="http://www.w3.org/2000/svg">
<path d="M13.8008 0.309086C13.0255 -0.0986754 11.9604 -0.1048 11.1796 0.301512C7.84433 2.0371 4.82202 4.02564 2.17572 6.22891C1.82283 6.52272 1.58931 6.93393 1.59331 7.40395C1.59729 7.87237 1.83612 8.279 2.18784 8.56877C4.81284 10.7314 7.83856 12.7223 11.1132 14.4444C11.8886 14.8522 12.9536 14.8583 13.7344 14.452C17.0697 12.7164 20.092 10.7278 22.7383 8.52456C23.0912 8.23076 23.3247 7.81954 23.3207 7.34952C23.3167 6.88111 23.0779 6.47447 22.7262 6.1847C20.1012 4.02204 17.0755 2.03116 13.8008 0.309086Z" fill="#8B8B8B"/>
<path d="M24.0435 13.5364C24.498 13.2505 24.6364 12.6476 24.3527 12.1897C24.0689 11.7318 23.4705 11.5923 23.0161 11.8782L15.1168 16.8473C14.4132 17.29 13.4572 17.5368 12.4568 17.5368C11.4564 17.5369 10.5003 17.2902 9.7965 16.8476L1.9838 11.9347C1.52929 11.6489 0.930901 11.7885 0.647248 12.2464C0.363595 12.7044 0.502096 13.3073 0.956598 13.5931L8.7693 18.506C9.84136 19.1802 11.1713 19.4918 12.4569 19.4917C13.7425 19.4916 15.0724 19.1799 16.1443 18.5056L24.0435 13.5364Z" fill="#8B8B8B"/>
<path d="M24.0436 18.4297C24.4981 18.1438 24.6364 17.5408 24.3526 17.0829C24.0688 16.625 23.4704 16.4857 23.016 16.7716L16.1752 21.076C15.1756 21.705 13.8384 22.045 12.4567 22.0451C11.0751 22.0452 9.73781 21.7054 8.73797 21.0765L1.9839 16.8281C1.52943 16.5422 0.931018 16.6817 0.64731 17.1396C0.363602 17.5976 0.502031 18.2005 0.956499 18.4864L7.71057 22.7347C9.07873 23.5953 10.79 24.0001 12.4569 24C14.1237 23.9999 15.8349 23.5949 17.2028 22.7341L24.0436 18.4297Z" fill="#8B8B8B"/>
</svg>
