<svg width="24" height="23" viewBox="0 0 24 23" fill="none" xmlns="http://www.w3.org/2000/svg">
<path d="M19.1875 17.9688H14.7097V16.5312H13.2722V17.9688H10.3972V16.5312H8.95969V17.9688H4.8125C4.62188 17.9688 4.43906 18.0445 4.30427 18.1793C4.16948 18.3141 4.09375 18.4969 4.09375 18.6875C4.09375 18.8781 4.16948 19.0609 4.30427 19.1957C4.43906 19.3305 4.62188 19.4062 4.8125 19.4062H19.1875C19.3781 19.4062 19.5609 19.3305 19.6957 19.1957C19.8305 19.0609 19.9062 18.8781 19.9062 18.6875C19.9062 18.4969 19.8305 18.3141 19.6957 18.1793C19.5609 18.0445 19.3781 17.9688 19.1875 17.9688Z" fill="#4586FF"/>
<path d="M15.2344 10.7812L14.4653 7.90625H9.53469L8.76562 10.7812H15.2344Z" fill="#4586FF"/>
<path d="M8.04684 7.90625H3.03715L2.21777 10.7812H7.27777L8.04684 7.90625Z" fill="#4586FF"/>
<path d="M16.7222 10.7812H21.7822L20.9628 7.90625H15.9531L16.7222 10.7812Z" fill="#4586FF"/>
<path d="M8.37746 12.2188L7.6084 15.0938H16.3915L15.6225 12.2188H8.37746Z" fill="#4586FF"/>
<path d="M13.3082 3.59375H10.6919L9.92285 6.46875H14.0772L13.3082 3.59375Z" fill="#4586FF"/>
<path d="M22.7812 14.1809L22.1918 12.2187H17.1102L17.8793 15.0937H22.0624C22.174 15.0937 22.284 15.0678 22.3839 15.0179C22.4837 14.968 22.5705 14.8955 22.6374 14.8062C22.7082 14.7203 22.758 14.619 22.7829 14.5105C22.8079 14.402 22.8073 14.2892 22.7812 14.1809ZM20.553 6.46875L19.9062 4.11844C19.8627 3.96297 19.7681 3.82667 19.6378 3.73148C19.5074 3.6363 19.3487 3.58778 19.1874 3.59375H14.7959L15.5937 6.46875H20.553ZM6.8896 12.2187H1.80804L1.21866 14.1809C1.18859 14.287 1.18332 14.3986 1.20326 14.507C1.2232 14.6154 1.26782 14.7178 1.33366 14.8062C1.40347 14.8995 1.49489 14.9744 1.60007 15.0245C1.70524 15.0746 1.82101 15.0983 1.93741 15.0937H6.12054L6.8896 12.2187ZM9.20398 3.59375H4.81241C4.65109 3.58778 4.49246 3.6363 4.36207 3.73148C4.23169 3.82667 4.13714 3.96297 4.09366 4.11844L3.44679 6.46875H8.40616L9.20398 3.59375Z" fill="#4586FF"/>
</svg>
