<svg width="40" height="21" viewBox="0 0 40 21" fill="none" xmlns="http://www.w3.org/2000/svg">
<path d="M24.8684 16H2.13158C0.956013 16 0 15.103 0 14V2C0 0.897 0.956013 0 2.13158 0H24.8684C26.044 0 27 0.897 27 2V14C27 15.103 26.044 16 24.8684 16ZM2.13158 1.33333C1.73972 1.33333 1.42105 1.63233 1.42105 2V14C1.42105 14.3677 1.73972 14.6667 2.13158 14.6667H24.8684C25.2603 14.6667 25.5789 14.3677 25.5789 14V2C25.5789 1.63233 25.2603 1.33333 24.8684 1.33333H2.13158Z" fill="#1DBF73"/>
<path d="M24.8684 16H2.13158C0.956013 16 0 15.103 0 14V2C0 0.897 0.956013 0 2.13158 0H24.8684C26.044 0 27 0.897 27 2V14C27 15.103 26.044 16 24.8684 16ZM2.13158 1.33333C1.73972 1.33333 1.42105 1.63233 1.42105 2V14C1.42105 14.3677 1.73972 14.6667 2.13158 14.6667H24.8684C25.2603 14.6667 25.5789 14.3677 25.5789 14V2C25.5789 1.63233 25.2603 1.33333 24.8684 1.33333H2.13158Z" fill="black" fill-opacity="0.2"/>
<path d="M13 21C12.7348 21 12.4804 20.9298 12.2929 20.8047C12.1054 20.6797 12 20.5101 12 20.3333V15.6667C12 15.4899 12.1054 15.3203 12.2929 15.1953C12.4804 15.0702 12.7348 15 13 15C13.2652 15 13.5196 15.0702 13.7071 15.1953C13.8946 15.3203 14 15.4899 14 15.6667V20.3333C14 20.5101 13.8946 20.6797 13.7071 20.8047C13.5196 20.9298 13.2652 21 13 21Z" fill="#1DBF73"/>
<path d="M13 21C12.7348 21 12.4804 20.9298 12.2929 20.8047C12.1054 20.6797 12 20.5101 12 20.3333V15.6667C12 15.4899 12.1054 15.3203 12.2929 15.1953C12.4804 15.0702 12.7348 15 13 15C13.2652 15 13.5196 15.0702 13.7071 15.1953C13.8946 15.3203 14 15.4899 14 15.6667V20.3333C14 20.5101 13.8946 20.6797 13.7071 20.8047C13.5196 20.9298 13.2652 21 13 21Z" fill="black" fill-opacity="0.2"/>
<path d="M17.7609 21H9.67391C9.49518 21 9.32377 20.9286 9.19738 20.8016C9.071 20.6745 9 20.5022 9 20.3226C9 20.1429 9.071 19.9706 9.19738 19.8436C9.32377 19.7165 9.49518 19.6452 9.67391 19.6452H17.7609C17.9396 19.6452 18.111 19.7165 18.2374 19.8436C18.3638 19.9706 18.4348 20.1429 18.4348 20.3226C18.4348 20.5022 18.3638 20.6745 18.2374 20.8016C18.111 20.9286 17.9396 21 17.7609 21ZM37.9783 21H32.587C31.472 21 30.5652 20.0885 30.5652 18.9677V2.03226C30.5652 0.911468 31.472 0 32.587 0H37.9783C39.0933 0 40 0.911468 40 2.03226V18.9677C40 20.0885 39.0933 21 37.9783 21ZM32.587 1.35484C32.2153 1.35484 31.913 1.65866 31.913 2.03226V18.9677C31.913 19.3413 32.2153 19.6452 32.587 19.6452H37.9783C38.3499 19.6452 38.6522 19.3413 38.6522 18.9677V2.03226C38.6522 1.65866 38.3499 1.35484 37.9783 1.35484H32.587Z" fill="#1DBF73"/>
<path d="M17.7609 21H9.67391C9.49518 21 9.32377 20.9286 9.19738 20.8016C9.071 20.6745 9 20.5022 9 20.3226C9 20.1429 9.071 19.9706 9.19738 19.8436C9.32377 19.7165 9.49518 19.6452 9.67391 19.6452H17.7609C17.9396 19.6452 18.111 19.7165 18.2374 19.8436C18.3638 19.9706 18.4348 20.1429 18.4348 20.3226C18.4348 20.5022 18.3638 20.6745 18.2374 20.8016C18.111 20.9286 17.9396 21 17.7609 21ZM37.9783 21H32.587C31.472 21 30.5652 20.0885 30.5652 18.9677V2.03226C30.5652 0.911468 31.472 0 32.587 0H37.9783C39.0933 0 40 0.911468 40 2.03226V18.9677C40 20.0885 39.0933 21 37.9783 21ZM32.587 1.35484C32.2153 1.35484 31.913 1.65866 31.913 2.03226V18.9677C31.913 19.3413 32.2153 19.6452 32.587 19.6452H37.9783C38.3499 19.6452 38.6522 19.3413 38.6522 18.9677V2.03226C38.6522 1.65866 38.3499 1.35484 37.9783 1.35484H32.587Z" fill="black" fill-opacity="0.2"/>
<path d="M39.3571 4.47368H31.6429C31.4724 4.47368 31.3088 4.39605 31.1883 4.25787C31.0677 4.11968 31 3.93226 31 3.73684C31 3.54142 31.0677 3.354 31.1883 3.21582C31.3088 3.07763 31.4724 3 31.6429 3H39.3571C39.5276 3 39.6912 3.07763 39.8117 3.21582C39.9323 3.354 40 3.54142 40 3.73684C40 3.93226 39.9323 4.11968 39.8117 4.25787C39.6912 4.39605 39.5276 4.47368 39.3571 4.47368ZM35.5 17C34.7909 17 34.2143 16.3391 34.2143 15.5263C34.2143 14.7136 34.7909 14.0526 35.5 14.0526C36.2091 14.0526 36.7857 14.7136 36.7857 15.5263C36.7857 16.3391 36.2091 17 35.5 17Z" fill="#1DBF73"/>
<path d="M39.3571 4.47368H31.6429C31.4724 4.47368 31.3088 4.39605 31.1883 4.25787C31.0677 4.11968 31 3.93226 31 3.73684C31 3.54142 31.0677 3.354 31.1883 3.21582C31.3088 3.07763 31.4724 3 31.6429 3H39.3571C39.5276 3 39.6912 3.07763 39.8117 3.21582C39.9323 3.354 40 3.54142 40 3.73684C40 3.93226 39.9323 4.11968 39.8117 4.25787C39.6912 4.39605 39.5276 4.47368 39.3571 4.47368ZM35.5 17C34.7909 17 34.2143 16.3391 34.2143 15.5263C34.2143 14.7136 34.7909 14.0526 35.5 14.0526C36.2091 14.0526 36.7857 14.7136 36.7857 15.5263C36.7857 16.3391 36.2091 17 35.5 17Z" fill="black" fill-opacity="0.2"/>
</svg>
