<svg width="35" height="28" viewBox="0 0 35 28" fill="none" xmlns="http://www.w3.org/2000/svg">
<path d="M32.1072 12.2739H31.3276C30.9378 8.19188 27.3475 5.20302 23.3127 5.6043C19.8182 5.95023 17.0554 8.74538 16.7203 12.2739H2.9064C1.29933 12.2739 0 13.5884 0 15.2143V22.216C0 23.835 1.29933 25.1565 2.9064 25.1565H3.52871V26.3811C3.52871 27.1906 4.17838 27.8409 4.97165 27.8409H7.70025C8.50037 27.8409 9.14319 27.1836 9.14319 26.3811V25.1565H25.8567V26.3811C25.8567 27.1906 26.5064 27.8409 27.2996 27.8409H30.0282C30.8284 27.8409 31.4712 27.1836 31.4712 26.3811V25.1565H32.0935C33.7006 25.1565 34.9999 23.835 34.9999 22.216V15.2143C35.0136 13.5884 33.7142 12.2739 32.1072 12.2739ZM24.024 7.01571C27.2928 7.01571 29.9393 9.69323 29.9393 13.0004C29.9393 16.3075 27.2928 18.985 24.024 18.985C20.7551 18.985 18.1086 16.3075 18.1086 13.0004C18.1086 9.69323 20.7551 7.01571 24.024 7.01571ZM7.70709 26.3949L4.95798 26.3811V25.1565H7.71393L7.70709 26.3949ZM30.0351 26.3949L27.2928 26.3811V25.1565H30.0488L30.0351 26.3949ZM33.5843 22.216C33.5843 23.0394 32.921 23.7105 32.1072 23.7105C32.0525 23.7105 9.21158 23.7105 2.9064 23.7105C2.09261 23.7105 1.42926 23.0394 1.42926 22.216V15.2143C1.42926 14.391 2.09261 13.7199 2.9064 13.7199H16.7135C17.1033 17.8019 20.6936 20.7908 24.7283 20.3895C28.2229 20.0436 30.9856 17.2484 31.3207 13.7199H32.1003C32.9141 13.7199 33.5775 14.391 33.5775 15.2143V22.216H33.5843Z" fill="#E03D51"/>
<path d="M18.8777 12.4233C20.2542 12.4233 21.3737 13.6216 21.3737 15.1012C21.3623 15.4558 21.6251 15.7493 21.9506 15.7615C22.2819 15.7737 22.5561 15.4925 22.5675 15.144C22.5675 15.1318 22.5675 15.1195 22.5675 15.1073C22.5675 12.9247 20.9111 11.1578 18.8777 11.1516C18.5464 11.1516 18.2836 11.439 18.2836 11.7936C18.2779 12.136 18.5464 12.4233 18.8777 12.4233ZM10.2985 18.0236H2.45619C2.1249 18.0236 1.85645 18.311 1.85645 18.6594C1.85645 19.014 2.1249 19.3014 2.45047 19.3014H10.2928C10.6241 19.3014 10.8925 19.014 10.8925 18.6656C10.8925 18.3171 10.6298 18.0236 10.2985 18.0236ZM3.35865 20.9949H2.45619C2.1249 20.9949 1.85645 21.2823 1.85645 21.6308C1.85645 21.9854 2.1249 22.2727 2.45047 22.2727H3.34723C3.67852 22.2727 3.94126 21.9854 3.94126 21.6308C3.95268 21.2823 3.68423 20.9949 3.35865 20.9949ZM6.83144 20.9949H5.92897C5.59769 20.9949 5.32923 21.2823 5.32923 21.6308C5.32923 21.9854 5.59769 22.2727 5.92326 22.2727H6.82573C7.15702 22.2727 7.41976 21.9854 7.41976 21.6308C7.42547 21.2823 7.15702 20.9949 6.83144 20.9949ZM10.2985 20.9949H9.40176C9.07048 20.9949 8.80773 21.2823 8.80773 21.6369C8.80773 21.9915 9.07619 22.2727 9.40176 22.2727H10.2985C10.6298 22.2727 10.8983 21.9854 10.8983 21.6369C10.8983 21.2884 10.6298 20.9949 10.2985 20.9949ZM18.8777 6.95755C19.209 6.95755 19.4774 6.6702 19.4774 6.32171V0.63584C19.4774 0.281237 19.209 0 18.8777 0C18.5464 0 18.2836 0.287351 18.2836 0.63584V6.3156C18.2779 6.6702 18.5464 6.95755 18.8777 6.95755ZM15.7476 6.62129C15.9075 6.92698 16.2731 7.03703 16.5587 6.86584C16.8386 6.69466 16.9471 6.3156 16.7929 6.00991L14.748 1.99311C14.5881 1.68742 14.2225 1.57737 13.9369 1.74856C13.6571 1.91975 13.5485 2.2988 13.7028 2.6045L15.7476 6.62129ZM21.191 6.87807C21.4823 7.04926 21.8421 6.9331 22.002 6.6274L24.0469 2.61061C24.2125 2.30492 24.1211 1.91363 23.8355 1.73633C23.5499 1.55903 23.1844 1.65685 23.0187 1.96254C23.013 1.97477 23.0073 1.987 23.0016 1.99923L20.9568 6.01602C20.7968 6.32171 20.8997 6.70688 21.191 6.87807Z" fill="#E03D51"/>
</svg>
