<svg width="16" height="30" viewBox="0 0 16 30" fill="none" xmlns="http://www.w3.org/2000/svg">
<path d="M1.14487 0H14.8551C15.4864 0 16 0.506452 16 1.12903V29.5161C16 29.6445 15.9483 29.7675 15.8563 29.8583C15.7643 29.949 15.6395 30 15.5093 30H13.6854C13.5553 30 13.4305 29.949 13.3385 29.8583C13.2464 29.7675 13.1947 29.6445 13.1947 29.5161V28.6961H2.80558V29.5161C2.80558 29.6445 2.75388 29.7675 2.66187 29.8583C2.56985 29.949 2.44505 30 2.31492 30H0.490983C0.360853 30 0.236053 29.949 0.144036 29.8583C0.0520201 29.7675 0.000326157 29.6445 0.000326157 29.5161V28.2155L0 28.2123V1.12903C0 0.506452 0.513554 0 1.14487 0ZM13.6854 27.7284H15.0187V12.0658H0.981314V27.7284H13.6854ZM14.8551 0.967742H1.14487C1.10149 0.967742 1.05989 0.984735 1.02922 1.01498C0.998545 1.04523 0.981314 1.08626 0.981314 1.12903V10.9819H15.0187V1.12903C15.0187 1.08626 15.0015 1.04523 14.9708 1.01498C14.9401 0.984735 14.8985 0.967742 14.8551 0.967742ZM14.1761 29.0323H15.0187V28.6961H14.1761V29.0323ZM0.981641 29.0323H1.82426V28.6961H0.981641V29.0323Z" fill="#7585F8"/>
</svg>
