<svg width="24" height="24" viewBox="0 0 24 24" fill="none" xmlns="http://www.w3.org/2000/svg">
<path d="M8.24648 12C8.24648 9.92699 9.92698 8.24649 12 8.24649C14.073 8.24649 15.7535 9.92699 15.7535 12C15.7535 14.073 14.073 15.7535 12 15.7535C9.92698 15.7535 8.24648 14.073 8.24648 12Z" fill="#8B8B8B"/>
<path fill-rule="evenodd" clip-rule="evenodd" d="M11.3772 0.264226C11.7177 -0.0880752 12.2823 -0.0880752 12.6228 0.264225L15.5937 3.33805H19.7958C20.2741 3.33805 20.662 3.72586 20.662 4.20424V8.40632L23.7358 11.3772C24.0881 11.7177 24.0881 12.2823 23.7358 12.6228L20.662 15.5937V19.7958C20.662 20.2741 20.2741 20.662 19.7958 20.662H15.5937L12.6228 23.7358C12.2823 24.0881 11.7177 24.0881 11.3772 23.7358L8.40631 20.662H4.20424C3.72586 20.662 3.33805 20.2741 3.33805 19.7958V15.5937L0.264225 12.6228C-0.0880746 12.2823 -0.0880753 11.7177 0.264224 11.3772L3.33805 8.40632V4.20424C3.33805 3.72586 3.72586 3.33805 4.20424 3.33805H8.40632L11.3772 0.264226ZM12 6.5141C8.97021 6.5141 6.51409 8.97022 6.51409 12C6.51409 15.0298 8.97021 17.4859 12 17.4859C15.0298 17.4859 17.4859 15.0298 17.4859 12C17.4859 8.97022 15.0298 6.5141 12 6.5141Z" fill="#8B8B8B"/>
</svg>
