<svg width="23" height="25" viewBox="0 0 23 25" fill="none" xmlns="http://www.w3.org/2000/svg">
<path d="M20.4217 13.3333H2.57833C2.19415 13.3337 1.81474 13.2676 1.46789 13.1398C1.12105 13.012 0.815556 12.8259 0.573804 12.595C0.332052 12.3641 0.160165 12.0942 0.070739 11.8053C-0.0186871 11.5163 -0.0233864 11.2155 0.0569853 10.925L2.42748 2.375C2.61839 1.70386 3.09908 1.103 3.79041 0.671325C4.48175 0.239647 5.34252 0.00288032 6.23104 0H16.769C17.659 0.00329993 18.5209 0.241256 19.2124 0.674575C19.904 1.10789 20.3837 1.71066 20.5725 2.38333L22.943 10.925C23.0234 11.2155 23.0187 11.5163 22.9293 11.8053C22.8398 12.0942 22.6679 12.3641 22.4262 12.595C22.1844 12.8259 21.879 13.012 21.5321 13.1398C21.1853 13.2676 20.8058 13.3337 20.4217 13.3333ZM6.23104 1.66667C5.83579 1.66888 5.45321 1.77478 5.1459 1.96704C4.8386 2.15929 4.62476 2.42652 4.53937 2.725L2.16888 11.275C2.15609 11.3222 2.15704 11.371 2.17165 11.4179C2.18627 11.4647 2.21419 11.5085 2.25339 11.546C2.29258 11.5835 2.34208 11.6138 2.39828 11.6346C2.45448 11.6555 2.51598 11.6665 2.57833 11.6667H20.4217C20.484 11.6665 20.5455 11.6555 20.6017 11.6346C20.6579 11.6138 20.7074 11.5835 20.7466 11.546C20.7858 11.5085 20.8137 11.4647 20.8283 11.4179C20.843 11.371 20.8439 11.3222 20.8311 11.275L18.4606 2.725C18.3752 2.42652 18.1614 2.15929 17.8541 1.96704C17.5468 1.77478 17.1642 1.66888 16.769 1.66667H6.23104Z" fill="#4586FF"/>
<path d="M12.5774 12.2917H10.4224V24.1667H12.5774V12.2917Z" fill="#4586FF"/>
<path d="M15.8103 23.3334H7.19029C6.5952 23.3334 6.11279 23.7065 6.11279 24.1668C6.11279 24.627 6.5952 25.0001 7.19029 25.0001H15.8103C16.4053 25.0001 16.8878 24.627 16.8878 24.1668C16.8878 23.7065 16.4053 23.3334 15.8103 23.3334Z" fill="#4586FF"/>
<path d="M7.18966 13.3333C7.18966 12.8731 6.70725 12.5 6.11216 12.5C5.51708 12.5 5.03467 12.8731 5.03467 13.3333V14.1667C5.03467 14.6269 5.51708 15 6.11216 15C6.70725 15 7.18966 14.6269 7.18966 14.1667V13.3333Z" fill="#4586FF"/>
</svg>
