<svg width="25" height="24" viewBox="0 0 25 24" fill="none" xmlns="http://www.w3.org/2000/svg">
<path d="M9 12.75C9 12.5511 8.92098 12.3603 8.78033 12.2197C8.63968 12.079 8.44891 12 8.25 12C8.05109 12 7.86032 12.079 7.71967 12.2197C7.57902 12.3603 7.5 12.5511 7.5 12.75V15.75C7.5 15.9489 7.57902 16.1397 7.71967 16.2803C7.86032 16.421 8.05109 16.5 8.25 16.5C8.44891 16.5 8.63968 16.421 8.78033 16.2803C8.92098 16.1397 9 15.9489 9 15.75V12.75ZM12.75 8.5C12.9489 8.5 13.1397 8.57902 13.2803 8.71967C13.421 8.86032 13.5 9.05109 13.5 9.25V15.75C13.5 15.9489 13.421 16.1397 13.2803 16.2803C13.1397 16.421 12.9489 16.5 12.75 16.5C12.5511 16.5 12.3603 16.421 12.2197 16.2803C12.079 16.1397 12 15.9489 12 15.75V9.25C12 9.05109 12.079 8.86032 12.2197 8.71967C12.3603 8.57902 12.5511 8.5 12.75 8.5ZM18 6.75C18 6.55109 17.921 6.36032 17.7803 6.21967C17.6397 6.07902 17.4489 6 17.25 6C17.0511 6 16.8603 6.07902 16.7197 6.21967C16.579 6.36032 16.5 6.55109 16.5 6.75V15.75C16.5 15.9489 16.579 16.1397 16.7197 16.2803C16.8603 16.421 17.0511 16.5 17.25 16.5C17.4489 16.5 17.6397 16.421 17.7803 16.2803C17.921 16.1397 18 15.9489 18 15.75V6.75Z" fill="#8B8B8B"/>
<path fill-rule="evenodd" clip-rule="evenodd" d="M8.33805 0C6.73766 0 5.44634 -1.74453e-08 4.43132 0.136976C3.37766 0.277463 2.49024 0.581854 1.78546 1.28546C1.08068 1.99024 0.778634 2.87766 0.636976 3.93132C0.5 4.94634 0.5 6.23766 0.5 7.83805V16.162C0.5 17.7623 0.5 19.0537 0.636976 20.0687C0.777463 21.1223 1.08185 22.0098 1.78546 22.7145C2.49024 23.4193 3.37766 23.7214 4.43132 23.8642C5.44634 24 6.73766 24 8.33805 24H16.662C18.2623 24 19.5537 24 20.5687 23.8642C21.6223 23.7214 22.5098 23.4193 23.2145 22.7145C23.9193 22.0098 24.2214 21.1223 24.3642 20.0687C24.5 19.0537 24.5 17.7623 24.5 16.162V7.83805C24.5 6.23766 24.5 4.94634 24.3642 3.93132C24.2214 2.87766 23.9193 1.99024 23.2145 1.28546C22.5098 0.580683 21.6223 0.278634 20.5687 0.136976C19.5537 -1.74453e-08 18.2623 0 16.662 0H8.33805ZM3.02878 2.52761C3.35307 2.20332 3.80732 1.99259 4.6678 1.87668C5.55054 1.75844 6.72361 1.7561 8.40361 1.7561H16.5987C18.2787 1.7561 19.4506 1.75844 20.3357 1.87668C21.195 1.99259 21.6493 2.20449 21.9736 2.52761C22.2979 2.8519 22.5086 3.30615 22.6245 4.16663C22.7427 5.04937 22.7451 6.22244 22.7451 7.90244V16.0976C22.7451 17.7776 22.7427 18.9495 22.6245 19.8345C22.5086 20.6939 22.2967 21.1481 21.9736 21.4724C21.6493 21.7967 21.195 22.0074 20.3345 22.1233C19.4506 22.2416 18.2787 22.2439 16.5987 22.2439H8.40361C6.72361 22.2439 5.55054 22.2416 4.66663 22.1233C3.80732 22.0074 3.35307 21.7955 3.02878 21.4724C2.70449 21.1481 2.49376 20.6939 2.37785 19.8334C2.25961 18.9495 2.25727 17.7776 2.25727 16.0976V7.90244C2.25727 6.22244 2.25961 5.04937 2.37785 4.16546C2.49376 3.30615 2.70566 2.8519 3.02878 2.52761Z" fill="#8B8B8B"/>
</svg>
